{"title":"Orphan Black S02E01 HDTV x264 AAC [GWC].mp4","uid":10001142,"size":149098646,"categoryP":"video","categoryS":"tv_shows","magnet":"?xt=urn:btih:ad3e6e5d80b6ef0793017ce1dd4141df3fe8122e&amp;dn=Orphan+Black+S02E01+HDTV+x264+AAC+%5BGWC%5D.mp4&amp;tr=udp%3A%2F%2Ftracker.openbittorrent.com%3A80&amp;tr=udp%3A%2F%2Fopen.demonii.com%3A1337&amp;tr=udp%3A%2F%2Ftracker.coppersurfer.tk%3A6969&amp;tr=udp%3A%2F%2Fexodus.desync.com%3A6969","seeders":1,"leechers":0,"uploader":"canc232","files":1,"time":1397982746,"description":"Orphan Black S02E01 HDTV x264 AAC [GWC] \n\n\nSTORYLINE :\nOrphan Black follows outsider, orphan and street-wise chameleon Sarah. After witnessing a woman's suicide, Sarah assumes the strangers identity - who happens to look just like her. Expecting to solve all her problems by cleaning out the dead woman's savings, Sarah is instead thrust headlong into a kaleidoscopic mystery as she realizes the dizzying truth - she and the dead woman are clones. As Sarah searches for answers, she discovers the chilling fact that there are more people like her out there - genetically identical individuals who were planted in unsuspecting birth parents and nurtured in completely different circumstances. With no idea who created the clones, she'll need to discover the reason in a hurry as an assassin is killing them one by one. \n\n\nSCREENS : &lt;a href=&quot;\nhttp://i.imgur.com/n5HaEec.jpg&quot; rel=&quot;nofollow&quot; target=&quot;_NEW&quot;&gt;\nhttp://i.imgur.com/n5HaEec.jpg&lt;/a&gt; &lt;a href=&quot;\nhttp://i.imgur.com/joRXPgu.jpg&quot; rel=&quot;nofollow&quot; target=&quot;_NEW&quot;&gt;\nhttp://i.imgur.com/joRXPgu.jpg&lt;/a&gt; &lt;a href=&quot;\nhttp://i.imgur.com/8h1JcAG.jpg&quot; rel=&quot;nofollow&quot; target=&quot;_NEW&quot;&gt;\nhttp://i.imgur.com/8h1JcAG.jpg&lt;/a&gt;\n\n\nMEDIA INFO :\nGeneral \nFormat : MPEG-4 \nFormat profile : Base Media \nFile size : 142 MiB \nDuration : 43mn 27s \nOverall bit rate mode : Variable \nOverall bit rate : 457 Kbps \n\nVideo \nFormat : AVC \nFormat profile : &lt;a class=&quot;__cf_email__&quot; href=&quot;/cdn-cgi/l/email-protection&quot; data-cfemail=&quot;d69ebfb1be969ae5f8e6&quot;&gt;[email&amp;#160;protected]&lt;/a&gt;&lt;script cf-hash='f9e31' type=&quot;text/javascript&quot;&gt;\n/* &lt;![CDATA[ */!function(){try{var t=&quot;currentScript&quot;in document?document.currentScript:function(){for(var t=document.getElementsByTagName(&quot;script&quot;),e=t.length;e--;)if(t[e].getAttribute(&quot;cf-hash&quot;))return t[e]}();if(t&amp;&amp;t.previousSibling){var e,r,n,i,c=t.previousSibling,a=c.getAttribute(&quot;data-cfemail&quot;);if(a){for(e=&quot;&quot;,r=parseInt(a.substr(0,2),16),n=2;a.length-n;n+=2)i=parseInt(a.substr(n,2),16)^r,e+=String.fromCharCode(i);e=document.createTextNode(e),c.parentNode.replaceChild(e,c)}}}catch(u){}}();/* ]]&gt; */&lt;/script&gt; \nFormat settings, CABAC : Yes \nFormat settings, ReFrames : 4 frames  \nDuration : 43mn 27s \nBit rate : 394 Kbps \nMaximum bit rate : 1 624 Kbps \nWidth : 720 pixels \nHeight : 404 pixels \nDisplay aspect ratio : 16:9 \nFrame rate mode : Constant \nFrame rate : 23.976 fps \nStream size : 123 MiB (86%) \nTitle : Orphan Black S02E01 HDTV x264 AAC [GWC] \nWriting library : x264 core \n\nAudio \nFormat : AAC \nFormat profile : HE-AAC / LC \nDuration : 43mn 27s \nBit rate mode : Variable \nChannel(s) : 2 channels \nSampling rate : 48.0 KHz / 24.0 KHz \nStream size : 18.7 MiB (13%) \nLanguage : English \n","torrent":{"xt":"urn:btih:ad3e6e5d80b6ef0793017ce1dd4141df3fe8122e","amp;dn":"Orphan+Black+S02E01+HDTV+x264+AAC+%5BGWC%5D.mp4","amp;tr":["udp%3A%2F%2Ftracker.openbittorrent.com%3A80","udp%3A%2F%2Fopen.demonii.com%3A1337","udp%3A%2F%2Ftracker.coppersurfer.tk%3A6969","udp%3A%2F%2Fexodus.desync.com%3A6969"],"infoHash":"ad3e6e5d80b6ef0793017ce1dd4141df3fe8122e","infoHashBuffer":{"type":"Buffer","data":[173,62,110,93,128,182,239,7,147,1,124,225,221,65,65,223,63,232,18,46]},"announce":[],"urlList":[]}}